<?xml version="1.0" encoding="UTF-8"?>
<svg id="_1500_x_1500_px_Logo_4" data-name="1500 x 1500 px Logo 4" xmlns="http://www.w3.org/2000/svg" viewBox="0 0 1295.34 265">
  <defs>
    <style>
      .cls-1, .cls-2 {
        fill: #9c27b0;
      }

      .cls-2 {
        stroke: #7451f8;
        stroke-miterlimit: 10;
      }

      .cls-2, .cls-3 {
        stroke-width: .5px;
      }

      .cls-3 {
        stroke: #1d1d1b;
      }
    </style>
  </defs>
  <path class="cls-3" d="m305.39,216.18V58.36h102.64v23.97h-74.05v42.84h68.74v23.97h-68.74v43.08h74.67v23.97h-103.26Z"/>
  <path class="cls-3" d="m481.23,218.26c-9.3,0-17.62-2.39-24.97-7.17-7.35-4.78-13.15-11.71-17.42-20.81-4.26-9.09-6.4-20.14-6.4-33.14s2.17-24.26,6.51-33.33c4.34-9.07,10.21-15.92,17.61-20.57,7.4-4.65,15.64-6.97,24.74-6.97,6.94,0,12.64,1.17,17.11,3.51,4.47,2.34,8.01,5.14,10.63,8.4,2.62,3.26,4.65,6.33,6.09,9.21h1.16v-59.03h27.97v157.82h-27.43v-18.65h-1.7c-1.44,2.88-3.52,5.92-6.24,9.13-2.72,3.21-6.32,5.95-10.79,8.21-4.47,2.26-10.09,3.39-16.88,3.39Zm7.78-22.89c5.91,0,10.94-1.61,15.1-4.82,4.16-3.21,7.32-7.69,9.48-13.45,2.16-5.75,3.24-12.46,3.24-20.11s-1.07-14.31-3.2-19.96c-2.13-5.65-5.27-10.04-9.4-13.18-4.14-3.13-9.21-4.7-15.22-4.7s-11.4,1.62-15.57,4.86c-4.16,3.24-7.29,7.71-9.4,13.41-2.11,5.7-3.16,12.23-3.16,19.57s1.07,13.99,3.2,19.77c2.13,5.78,5.29,10.33,9.48,13.64,4.19,3.31,9.34,4.97,15.45,4.97Z"/>
  <path class="cls-3" d="m650.83,166.4v-68.58h27.9v118.36h-27.05v-21.04h-1.23c-2.67,6.63-7.05,12.05-13.14,16.26-6.09,4.21-13.58,6.32-22.46,6.32-7.76,0-14.6-1.73-20.54-5.2s-10.57-8.53-13.91-15.18c-3.34-6.65-5.01-14.71-5.01-24.16v-75.36h27.9v71.05c0,7.5,2.05,13.46,6.17,17.88,4.11,4.42,9.5,6.63,16.18,6.63,4.11,0,8.09-1,11.94-3.01,3.85-2,7.02-5,9.52-8.98,2.49-3.98,3.74-8.98,3.74-14.99Z"/>
  <path class="cls-2" d="m795.69,101.74c-.72-6.73-3.74-11.97-9.05-15.72-5.32-3.75-12.21-5.63-20.69-5.63-5.96,0-11.07.9-15.33,2.7-4.26,1.8-7.53,4.24-9.79,7.32-2.26,3.08-3.42,6.6-3.47,10.56,0,3.29.76,6.14,2.27,8.55,1.51,2.42,3.58,4.46,6.2,6.13,2.62,1.67,5.52,3.07,8.71,4.2,3.18,1.13,6.4,2.08,9.63,2.85l14.79,3.7c5.96,1.39,11.7,3.26,17.22,5.62,5.52,2.36,10.48,5.34,14.87,8.94,4.39,3.6,7.87,7.94,10.44,13.02,2.57,5.09,3.85,11.05,3.85,17.88,0,9.25-2.36,17.38-7.09,24.39-4.73,7.01-11.55,12.48-20.46,16.41-8.91,3.93-19.69,5.89-32.33,5.89s-22.92-1.9-31.94-5.7c-9.02-3.8-16.05-9.35-21.11-16.64-5.06-7.29-7.8-16.18-8.21-26.66h28.13c.41,5.5,2.11,10.07,5.09,13.72,2.98,3.65,6.87,6.37,11.67,8.17,4.8,1.8,10.18,2.7,16.14,2.7s11.67-.94,16.38-2.81c4.7-1.88,8.39-4.5,11.06-7.86,2.67-3.36,4.03-7.31,4.08-11.83-.05-4.11-1.26-7.51-3.62-10.21s-5.66-4.96-9.9-6.78c-4.24-1.82-9.18-3.45-14.83-4.89l-17.96-4.62c-13-3.34-23.26-8.41-30.79-15.22-7.53-6.81-11.29-15.86-11.29-27.16,0-9.3,2.53-17.44,7.59-24.43,5.06-6.99,11.96-12.42,20.69-16.3,8.73-3.88,18.62-5.82,29.67-5.82s21.02,1.94,29.48,5.82c8.45,3.88,15.09,9.25,19.92,16.11,4.83,6.86,7.32,14.73,7.47,23.62h-27.51Z"/>
  <path class="cls-2" d="m909.96,97.81v21.58h-68.04v-21.58h68.04Zm-51.24-28.36h27.9v111.12c0,3.75.58,6.62,1.73,8.59,1.16,1.98,2.68,3.33,4.58,4.05,1.9.72,4.01,1.08,6.32,1.08,1.75,0,3.35-.13,4.82-.39,1.46-.26,2.58-.49,3.35-.69l4.7,21.81c-1.49.51-3.61,1.08-6.36,1.7-2.75.62-6.1.98-10.06,1.08-6.99.21-13.28-.86-18.88-3.2-5.6-2.34-10.03-5.97-13.29-10.9-3.26-4.93-4.87-11.1-4.82-18.49v-115.74Z"/>
  <path class="cls-2" d="m968.67,218.57c-7.5,0-14.24-1.35-20.23-4.05-5.99-2.7-10.71-6.69-14.18-11.98-3.47-5.29-5.2-11.82-5.2-19.57,0-6.68,1.23-12.2,3.7-16.57,2.47-4.37,5.83-7.86,10.09-10.48,4.26-2.62,9.08-4.61,14.45-5.97,5.37-1.36,10.93-2.35,16.68-2.97,6.93-.72,12.56-1.37,16.88-1.97,4.32-.59,7.46-1.51,9.44-2.77,1.98-1.26,2.97-3.22,2.97-5.9v-.46c0-5.8-1.72-10.3-5.16-13.49-3.44-3.19-8.4-4.78-14.87-4.78-6.83,0-12.24,1.49-16.22,4.47-3.98,2.98-6.67,6.5-8.05,10.56l-26.05-3.7c2.05-7.19,5.45-13.22,10.17-18.07,4.73-4.86,10.51-8.5,17.34-10.94,6.83-2.44,14.38-3.66,22.66-3.66,5.7,0,11.38.67,17.03,2,5.65,1.34,10.81,3.53,15.49,6.59,4.67,3.06,8.44,7.21,11.29,12.45,2.85,5.24,4.28,11.79,4.28,19.65v79.22h-26.82v-16.26h-.92c-1.7,3.29-4.07,6.36-7.13,9.21-3.06,2.85-6.88,5.14-11.48,6.86s-9.98,2.58-16.14,2.58Zm7.24-20.5c5.6,0,10.45-1.12,14.56-3.35,4.11-2.24,7.28-5.2,9.52-8.9,2.24-3.7,3.35-7.73,3.35-12.1v-13.95c-.87.72-2.35,1.39-4.43,2-2.08.62-4.41,1.16-6.97,1.62-2.57.46-5.11.87-7.63,1.23-2.52.36-4.7.67-6.55.92-4.16.57-7.89,1.49-11.17,2.77-3.29,1.29-5.88,3.07-7.78,5.36-1.9,2.29-2.85,5.23-2.85,8.82,0,5.14,1.88,9.02,5.62,11.64s8.53,3.93,14.33,3.93Z"/>
  <path class="cls-2" d="m1112.22,218.49c-11.82,0-21.95-2.59-30.4-7.78-8.45-5.19-14.95-12.37-19.5-21.54-4.55-9.17-6.82-19.74-6.82-31.71s2.31-22.64,6.94-31.86c4.62-9.22,11.16-16.41,19.61-21.58,8.45-5.16,18.46-7.75,30.01-7.75,9.61,0,18.12,1.76,25.55,5.28,7.42,3.52,13.34,8.48,17.76,14.87,4.42,6.4,6.94,13.86,7.55,22.39h-26.66c-1.08-5.7-3.63-10.47-7.67-14.29s-9.41-5.74-16.14-5.74c-5.7,0-10.71,1.53-15.03,4.58-4.32,3.06-7.67,7.44-10.06,13.14s-3.58,12.54-3.58,20.5,1.18,14.99,3.54,20.77c2.36,5.78,5.69,10.22,9.98,13.33,4.29,3.11,9.34,4.66,15.14,4.66,4.11,0,7.79-.78,11.06-2.35,3.26-1.57,6-3.84,8.21-6.82,2.21-2.98,3.72-6.6,4.55-10.87h26.66c-.67,8.37-3.13,15.79-7.4,22.23-4.26,6.45-10.07,11.48-17.42,15.1-7.35,3.62-15.98,5.43-25.89,5.43Z"/>
  <path class="cls-2" d="m1187.19,216.18V58.36h27.9v157.82h-27.9Zm25.43-37.14l-.08-33.67h4.47l42.54-47.55h32.6l-52.32,58.26h-5.78l-21.42,22.96Zm48.86,37.14l-38.53-53.86,18.8-19.65,53.09,73.51h-33.37Z"/>
  <g>
    <path class="cls-1" d="m254.91,89.83c0,.77-.19,2.7-1.98,3.94l-17.99,12.44s-.03.02-.04.03l-105.19,72.72c-1.37.95-3.14.95-4.51,0L20.01,106.24s-.03-.02-.05-.03L1.98,93.78c-1.79-1.24-1.98-3.17-1.98-3.94s.19-2.71,1.98-3.94L125.2.71c.69-.47,1.47-.71,2.26-.71s1.57.24,2.26.71l123.22,85.18c1.79,1.24,1.98,3.17,1.98,3.94Z"/>
    <path d="m254.91,132.5c0,.77-.19,2.71-1.98,3.94l-17.97,12.42s-.05.04-.08.06l-105.17,72.7c-1.37.95-3.14.95-4.51,0L20.03,148.92s-.05-.04-.08-.05l-17.97-12.42c-1.79-1.24-1.98-3.17-1.98-3.94s.19-2.7,1.98-3.94l15.18-10.49,102.38,70.78c2.4,1.66,5.15,2.49,7.91,2.49s5.51-.83,7.91-2.49l102.38-70.78,15.18,10.49c1.79,1.24,1.98,3.17,1.98,3.94Z"/>
    <path d="m254.91,175.16c0,.77-.19,2.71-1.98,3.94l-123.22,85.18c-1.37.95-3.14.95-4.51,0L1.98,179.11c-1.79-1.24-1.98-3.17-1.98-3.94s.19-2.7,1.98-3.94l15.18-10.5,102.38,70.78c2.4,1.66,5.16,2.49,7.91,2.49,2.75,0,5.51-.83,7.91-2.49l102.38-70.78,15.18,10.5c1.79,1.24,1.98,3.17,1.98,3.94Z"/>
  </g>
</svg>