<?xml version="1.0" encoding="UTF-8"?>
<svg id="_1500_x_1500_px_Logo_4" data-name="1500 x 1500 px Logo 4" xmlns="http://www.w3.org/2000/svg" viewBox="0 0 1294.85 265">
  <defs>
    <style>
      .cls-1 {
        fill: #9c27b0;
      }

      .cls-2 {
        stroke: #1d1d1b;
        stroke-width: .5px;
      }
    </style>
  </defs>
  <path class="cls-2" d="m305.39,216.19V58.19h103v24h-75v43h69v24h-69v43h75v24h-103Z"/>
  <path class="cls-2" d="m481.85,217.89c-9.28,0-17.59-2.39-24.92-7.15-7.33-4.77-13.13-11.69-17.39-20.77-4.26-9.08-6.38-20.1-6.38-33.08s2.17-24.22,6.5-33.27c4.33-9.05,10.19-15.9,17.58-20.54,7.39-4.64,15.62-6.96,24.69-6.96,6.92,0,12.62,1.17,17.08,3.5,4.46,2.33,8,5.13,10.62,8.38,2.62,3.26,4.64,6.32,6.08,9.19h.69v-59h28v158h-27v-19h-1.69c-1.44,2.87-3.51,5.91-6.23,9.12-2.72,3.21-6.31,5.94-10.77,8.19-4.46,2.26-10.08,3.38-16.85,3.38Zm7.16-22.52c5.91,0,10.94-1.61,15.1-4.82,4.16-3.21,7.32-7.69,9.48-13.45,2.16-5.75,3.24-12.46,3.24-20.11s-1.07-14.31-3.2-19.96c-2.13-5.65-5.27-10.04-9.4-13.18-4.14-3.13-9.21-4.7-15.22-4.7s-11.4,1.62-15.57,4.86c-4.16,3.24-7.29,7.71-9.4,13.41-2.11,5.7-3.16,12.23-3.16,19.57s1.07,13.99,3.2,19.77c2.13,5.78,5.29,10.33,9.48,13.64,4.19,3.31,9.34,4.97,15.45,4.97Z"/>
  <path class="cls-2" d="m651.39,166.78v-68.58h27v118h-27v-21h-1.23c-2.66,6.6-7.03,12.01-13.09,16.21-6.06,4.2-13.52,6.3-22.38,6.3-7.73,0-14.55-1.73-20.46-5.18-5.91-3.46-10.53-8.5-13.86-15.13-3.33-6.63-4.99-14.66-4.99-24.08v-75.11h28v71.05c0,7.5,2.07,13.46,6.22,17.88,4.15,4.42,9.59,6.63,16.34,6.63,4.15,0,8.17-1,12.06-3.01,3.89-2,7.09-5,9.61-8.98,2.52-3.98,3.77-8.98,3.77-14.99Z"/>
  <path class="cls-1" d="m795.78,101.69c-.72-6.75-3.75-12-9.08-15.76-5.33-3.76-12.25-5.64-20.75-5.64-5.98,0-11.1.9-15.38,2.7-4.28,1.8-7.55,4.25-9.81,7.34-2.27,3.09-3.43,6.62-3.48,10.59,0,3.3.76,6.16,2.28,8.58,1.52,2.42,3.59,4.47,6.22,6.14,2.63,1.67,5.54,3.08,8.73,4.21,3.19,1.13,6.41,2.09,9.66,2.86l14.84,3.71c5.98,1.39,11.73,3.27,17.27,5.64,5.54,2.37,10.51,5.36,14.91,8.96,4.4,3.61,7.89,7.96,10.47,13.06,2.58,5.1,3.86,11.08,3.86,17.93,0,9.27-2.37,17.42-7.11,24.46-4.74,7.03-11.58,12.52-20.52,16.46-8.94,3.94-19.74,5.91-32.42,5.91s-22.99-1.91-32.03-5.72c-9.04-3.81-16.1-9.38-21.17-16.69-5.07-7.32-7.82-16.23-8.23-26.74h28.2c.41,5.51,2.11,10.1,5.1,13.75,2.99,3.66,6.89,6.39,11.71,8.19,4.82,1.8,10.21,2.7,16.19,2.7s11.71-.94,16.42-2.82c4.71-1.88,8.41-4.51,11.09-7.88,2.68-3.37,4.04-7.33,4.1-11.86-.05-4.12-1.26-7.53-3.63-10.24-2.37-2.7-5.68-4.97-9.93-6.8-4.25-1.83-9.21-3.46-14.87-4.91l-18-4.64c-13.03-3.35-23.32-8.44-30.87-15.26-7.55-6.83-11.32-15.9-11.32-27.24,0-9.32,2.54-17.49,7.61-24.5,5.07-7.01,11.99-12.45,20.75-16.34,8.76-3.89,18.67-5.83,29.75-5.83s21.08,1.94,29.56,5.83c8.47,3.89,15.13,9.27,19.97,16.15,4.84,6.88,7.34,14.77,7.5,23.68h-27.59Z"/>
  <path class="cls-1" d="m910.89,97.69v22h-68v-22h68Zm-52-28h28v111.12c0,3.75.58,6.62,1.74,8.59,1.16,1.98,2.69,3.33,4.6,4.05,1.91.72,4.02,1.08,6.34,1.08,1.75,0,3.37-.13,4.83-.39,1.47-.26,2.59-.49,3.36-.69l4.72,21.81c-1.5.51-3.62,1.08-6.38,1.7-2.76.62-6.12.98-10.09,1.08-7.01.21-13.33-.86-18.95-3.2-5.62-2.34-10.07-5.97-13.34-10.9-3.28-4.93-4.89-11.1-4.83-18.49v-115.74Z"/>
  <path class="cls-1" d="m969.17,219.07c-7.5,0-14.24-1.35-20.23-4.05-5.99-2.7-10.71-6.69-14.18-11.98-3.47-5.29-5.2-11.82-5.2-19.57,0-6.68,1.23-12.2,3.7-16.57,2.47-4.37,5.83-7.86,10.09-10.48,4.26-2.62,9.08-4.61,14.45-5.97,5.37-1.36,10.93-2.35,16.68-2.97,6.93-.72,12.56-1.37,16.88-1.97,4.32-.59,7.46-1.51,9.44-2.77,1.98-1.26,3.09-5.9,3.09-5.9v-.44c0-5.8-1.73-10.3-5.18-13.49-3.46-3.19-8.43-4.78-14.93-4.78-6.86,0-12.29,1.49-16.28,4.47-4,2.98-6.69,6.5-8.08,10.56l-26.14-3.7c2.06-7.19,5.47-13.22,10.21-18.07,4.74-4.86,10.55-8.5,17.4-10.94,6.86-2.44,14.44-3.66,22.74-3.66,5.72,0,11.42.67,17.09,2,5.67,1.34,10.85,3.53,15.55,6.59,4.69,3.06,8.47,7.21,11.33,12.45,2.86,5.24,4.29,11.79,4.29,19.65v79.22h-27v-16h-.96c-1.7,3.01-4.07,6.08-7.13,8.93-3.06,2.85-6.88,5.14-11.48,6.86s-9.98,2.58-16.14,2.58Zm7.28-21c5.6,0,10.45-1.12,14.56-3.35,4.11-2.24,7.28-5.2,9.52-8.9,2.24-3.7,3.35-7.73,3.35-12.1v-13.95c-.87.72-2.35,1.39-4.43,2-2.08.62-4.41,1.16-6.97,1.62-2.57.46-5.11.87-7.63,1.23-2.52.36-4.7.67-6.55.92-4.16.57-7.89,1.49-11.17,2.77-3.29,1.29-5.88,3.07-7.78,5.36-1.9,2.29-2.85,5.23-2.85,8.82,0,5.14,1.88,9.02,5.62,11.64s8.53,3.93,14.33,3.93Z"/>
  <path class="cls-1" d="m1112.23,219.56c-11.84,0-22-2.6-30.47-7.8-8.47-5.2-14.99-12.4-19.54-21.59-4.56-9.19-6.84-19.79-6.84-31.79s2.32-22.7,6.95-31.94c4.63-9.24,11.19-16.45,19.66-21.63,8.47-5.18,18.5-7.76,30.09-7.76,9.63,0,18.16,1.76,25.61,5.29,7.44,3.53,13.37,8.5,17.8,14.91,4.43,6.41,6.95,13.89,7.57,22.44h-26.73c-1.08-5.72-3.64-10.49-7.69-14.33-4.04-3.84-9.44-5.75-16.18-5.75-5.72,0-10.74,1.53-15.06,4.6-4.33,3.06-7.69,7.45-10.08,13.17s-3.59,12.57-3.59,20.55,1.18,15.02,3.55,20.82c2.37,5.79,5.7,10.25,10,13.36,4.3,3.12,9.36,4.67,15.18,4.67,4.12,0,7.81-.78,11.08-2.36,3.27-1.57,6.01-3.85,8.23-6.84,2.21-2.99,3.73-6.62,4.56-10.89h26.73c-.67,8.39-3.14,15.82-7.42,22.28-4.27,6.46-10.09,11.51-17.46,15.14-7.37,3.63-16.02,5.45-25.95,5.45Z"/>
  <path class="cls-1" d="m1187.89,216.69V58.69h28v158h-28Zm25-36.74l-.08-34.26h4.51l42.94-48h33.16l-52.99,59h-5.85l-21.7,23.26Zm48.59,36.74l-38.53-53.86,18.8-19.65,53.09,73.51h-33.37Z"/>
  <g>
    <path class="cls-1" d="m254.91,89.83c0,.77-.19,2.7-1.98,3.94l-17.99,12.44s-.03.02-.04.03l-105.19,72.72c-1.37.95-3.14.95-4.51,0L20.01,106.24s-.03-.02-.05-.03L1.98,93.78c-1.79-1.24-1.98-3.17-1.98-3.94s.19-2.71,1.98-3.94L125.2.71c.69-.47,1.47-.71,2.26-.71s1.57.24,2.26.71l123.22,85.18c1.79,1.24,1.98,3.17,1.98,3.94Z"/>
    <path d="m254.91,132.5c0,.77-.19,2.71-1.98,3.94l-17.97,12.42s-.05.04-.08.06l-105.17,72.7c-1.37.95-3.14.95-4.51,0L20.03,148.92s-.05-.04-.08-.05l-17.97-12.42c-1.79-1.24-1.98-3.17-1.98-3.94s.19-2.7,1.98-3.94l15.18-10.49,102.38,70.78c2.4,1.66,5.15,2.49,7.91,2.49s5.51-.83,7.91-2.49l102.38-70.78,15.18,10.49c1.79,1.24,1.98,3.17,1.98,3.94Z"/>
    <path d="m254.91,175.16c0,.77-.19,2.71-1.98,3.94l-123.22,85.18c-1.37.95-3.14.95-4.51,0L1.98,179.11c-1.79-1.24-1.98-3.17-1.98-3.94s.19-2.7,1.98-3.94l15.18-10.5,102.38,70.78c2.4,1.66,5.16,2.49,7.91,2.49,2.75,0,5.51-.83,7.91-2.49l102.38-70.78,15.18,10.5c1.79,1.24,1.98,3.17,1.98,3.94Z"/>
  </g>
</svg>